<svg width="16" height="16" viewBox="0 0 16 16" fill="none" xmlns="http://www.w3.org/2000/svg">
<path fill-rule="evenodd" clip-rule="evenodd" d="M8.86841 14.9896H14.9887V14.1152H8.86841V14.9896Z" fill="#2B2A29"/>
<path fill-rule="evenodd" clip-rule="evenodd" d="M8.86841 13.2408H14.9887V12.3665H8.86841V13.2408Z" fill="#2B2A29"/>
<path fill-rule="evenodd" clip-rule="evenodd" d="M8.86841 11.492H14.9887V10.6177H8.86841V11.492Z" fill="#2B2A29"/>
<path fill-rule="evenodd" clip-rule="evenodd" d="M8.86841 9.74348H14.9887V8.86914H8.86841V9.74348Z" fill="#2B2A29"/>
<path fill-rule="evenodd" clip-rule="evenodd" d="M1 8.87964H7.12033V15H1V8.87964ZM6.24605 9.75399H1.87434V14.1257H6.24605V9.75399Z" fill="#2B2A29"/>
<path fill-rule="evenodd" clip-rule="evenodd" d="M1 2.74878H1.87434V3.62312H1V2.74878Z" fill="#2B2A29"/>
<path fill-rule="evenodd" clip-rule="evenodd" d="M2.74878 2.74878H3.62312V3.62312H2.74878V2.74878Z" fill="#2B2A29"/>
<path fill-rule="evenodd" clip-rule="evenodd" d="M4.49731 2.74878H5.37166V3.62312H4.49731V2.74878Z" fill="#2B2A29"/>
<path fill-rule="evenodd" clip-rule="evenodd" d="M6.24609 2.74878H7.12043V3.62312H6.24609V2.74878Z" fill="#2B2A29"/>
<path fill-rule="evenodd" clip-rule="evenodd" d="M1 4.49756H1.87434V5.37191H1V4.49756Z" fill="#2B2A29"/>
<path fill-rule="evenodd" clip-rule="evenodd" d="M2.74878 4.49756H3.62312V5.37191H2.74878V4.49756Z" fill="#2B2A29"/>
<path fill-rule="evenodd" clip-rule="evenodd" d="M4.49731 4.49756H5.37166V5.37191H4.49731V4.49756Z" fill="#2B2A29"/>
<path fill-rule="evenodd" clip-rule="evenodd" d="M6.24609 4.49756H7.12043V5.37191H6.24609V4.49756Z" fill="#2B2A29"/>
<path fill-rule="evenodd" clip-rule="evenodd" d="M1 6.24609H1.87434V7.12043H1V6.24609Z" fill="#2B2A29"/>
<path fill-rule="evenodd" clip-rule="evenodd" d="M2.74878 6.24609H3.62312V7.12043H2.74878V6.24609Z" fill="#2B2A29"/>
<path fill-rule="evenodd" clip-rule="evenodd" d="M4.49731 6.24609H5.37166V7.12043H4.49731V6.24609Z" fill="#2B2A29"/>
<path fill-rule="evenodd" clip-rule="evenodd" d="M6.24609 6.24609H7.12043V7.12043H6.24609V6.24609Z" fill="#2B2A29"/>
<path fill-rule="evenodd" clip-rule="evenodd" d="M1 1.00024H1.87434V1.87459H1V1.00024Z" fill="#2B2A29"/>
<path fill-rule="evenodd" clip-rule="evenodd" d="M2.74878 1H3.62312V1.87434H2.74878V1Z" fill="#2B2A29"/>
<path fill-rule="evenodd" clip-rule="evenodd" d="M4.49731 1H5.37166V1.87434H4.49731V1Z" fill="#2B2A29"/>
<path fill-rule="evenodd" clip-rule="evenodd" d="M6.24609 1H7.12043V1.87434H6.24609V1Z" fill="#2B2A29"/>
<path fill-rule="evenodd" clip-rule="evenodd" d="M14.9887 7.12026H14.1145V6.24605V1.87434H9.74261H8.86841V1H14.9887V7.12026Z" fill="#2B2A29"/>
<path fill-rule="evenodd" clip-rule="evenodd" d="M12.366 7.12049V3.62312H8.86914V2.74878H13.2403V7.12049H12.366Z" fill="#2B2A29"/>
<path fill-rule="evenodd" clip-rule="evenodd" d="M10.6176 7.12034V5.37166H8.86914V4.49731H11.4918V7.12034H10.6176Z" fill="#2B2A29"/>
<path fill-rule="evenodd" clip-rule="evenodd" d="M8.86914 6.24609H9.74341V7.12044H8.86914V6.24609Z" fill="#2B2A29"/>
</svg>
