<svg xmlns="http://www.w3.org/2000/svg" width="48" height="48" fill="none" viewBox="0 0 48 48"><path stroke="#2B2A29" stroke-linecap="round" stroke-linejoin="round" stroke-width="4" d="M30 23.9999H18v20h-8c-1.06087 0-2.07828-.4214-2.82843-1.1715C6.42143 42.0782 6 41.0608 6 39.9999V19.9563c0-1.2344.56989-2.3996 1.54424-3.1574L21.5442 5.90997c1.4445-1.12345 3.4671-1.12345 4.9116.00001l14 10.88892c.9743.7578 1.5442 1.923 1.5442 3.1574v20.0436c0 1.0609-.4214 2.0783-1.1716 2.8285-.7501.7501-1.7675 1.1715-2.8284 1.1715h-8v-14"/><path stroke="#66C3D0" stroke-linecap="round" stroke-linejoin="round" stroke-width="4" d="M21.5442 5.90991 7.54424 16.7988C6.56989 17.5566 6 18.7219 6 19.9562v20.0437c0 1.0608.42143 2.0783 1.17157 2.8284.75015.7502 1.76756 1.1716 2.82843 1.1716h8v-20h12"/></svg>