<svg xmlns="http://www.w3.org/2000/svg" width="48" height="48" fill="none" viewBox="0 0 48 48"><g stroke-linecap="round" stroke-linejoin="round" stroke-width="4" clip-path="url(#a)"><path stroke="#66C3D0" d="m34 22 4 4 8-8"/><path stroke="#2B2A29" d="M17 22c4.4183 0 8-3.5817 8-8 0-4.41828-3.5817-8-8-8s-8 3.58172-8 8c0 4.4183 3.5817 8 8 8ZM26.0004 42.2841c2.776-.4997 4.9769-1.2612 6-2.2843.1438-1.2938 0-3.3334 0-3.3334 0-1.7681-.8428-3.4638-2.3431-4.714-4.7379-3.9483-20.57583-3.9483-25.31374 0-1.50029 1.2502-2.34315 2.9459-2.34315 4.714 0 0-.14375 2.0396 0 3.3334 1.02314 1.0231 3.22396 1.7846 6 2.2843"/></g><defs><clipPath id="a"><path fill="#fff" d="M0 0h48v48H0z"/></clipPath></defs></svg>