<svg xmlns="http://www.w3.org/2000/svg" width="48" height="48" fill="none" viewBox="0 0 48 48"><path stroke="#66C3D0" stroke-linecap="round" stroke-linejoin="round" stroke-width="4" d="M24 44V30M33 18.7999 15 8.41992"/><path stroke="#2B2A29" stroke-linecap="round" stroke-linejoin="round" stroke-width="4" d="M42 31.9998v-16c-.0007-.7014-.1859-1.3904-.5369-1.9977-.3511-.6073-.8556-1.1116-1.4631-1.4623l-14-8c-.6081-.35107-1.2979-.53589-2-.53589s-1.3919.18482-2 .53589l-14 8c-.60747.3507-1.11204.855-1.46308 1.4623-.35103.6073-.5362 1.2963-.53692 1.9977v16c.00072.7015.18589 1.3904.53692 1.9977.35104.6073.85561 1.1116 1.46308 1.4623l14 8c.6081.3511 1.2979.5359 2 .5359s1.3919-.1848 2-.5359l14-8c.6075-.3507 1.112-.855 1.4631-1.4623.351-.6073.5362-1.2962.5369-1.9977Z"/><path stroke="#2B2A29" stroke-linecap="round" stroke-linejoin="round" stroke-width="4" d="M6.54004 13.9199 24 24.0199l17.46-10.1"/></svg>